PathFileType	4	(X/Y/Z)	pose2sim_0-881.trc
DataRate	CameraRate	NumFrames	NumMarkers	Units	OrigDataRate	OrigDataStartFrame	OrigNumFrames
50	50	9	22	m	50	110	882
Frame#	Time	Hip			RHip			RKnee			RAnkle			RBigToe			RSmallToe			RHeel			LHip			LKnee			LAnkle			LBigToe			LSmallToe			LHeel			Neck			Head			Nose			RShoulder			RElbow			RWrist			LShoulder			LElbow			LWrist			
		X1	Y1	Z1	X2	Y2	Z2	X3	Y3	Z3	X4	Y4	Z4	X5	Y5	Z5	X6	Y6	Z6	X7	Y7	Z7	X8	Y8	Z8	X9	Y9	Z9	X10	Y10	Z10	X11	Y11	Z11	X12	Y12	Z12	X13	Y13	Z13	X14	Y14	Z14	X15	Y15	Z15	X16	Y16	Z16	X17	Y17	Z17	X18	Y18	Z18	X19	Y19	Z19	X20	Y20	Z20	X21	Y21	Z21	X22	Y22	Z22	
110	2.2	0.13282726043159873	0.9729477963640716	-0.05567081339022384	0.026833551766699472	0.9626969750443994	-0.04672215736989607	0.012142832688355028	0.5216079908541488	-0.07373235321137513	0.002826818871483645	0.08975166566595105	-0.08315589452328265	-0.0009943040316229526	0.04073644146460983	0.10299472346591669	-0.05121636062539968	0.04452134852254058	0.04843619338781068	0.008821163691030798	0.04924446268528567	-0.12534077341956126	0.2411251750935262	0.9621145760753538	-0.06829724946294555	0.2410951400136348	0.5227640539364886	-0.11132470258275504	0.24634112056826085	0.09357590898655652	-0.11338637515851564	0.2863516749880578	0.03819895853844405	0.06881369196526707	0.32645352670082245	0.04193739587924234	0.009463041926259247	0.23753626851220092	0.04835241925083733	-0.14591523060061526	0.151059675087233	1.5791336534710452	-0.06987473803373967	0.15313627551531056	1.8238830558151562	-0.037477806502111376	0.16025662340397573	1.698090390199483	0.09031324434233841	-0.016888589631132038	1.4731397549084502	-0.0665994799941221	-0.07358911454107449	1.18689358159978	-0.03970337364582725	-0.15478822883417218	0.9567908706454027	0.03267422024165338	0.31700911988370645	1.469393433971306	-0.09258882849447762	0.35465874706587647	1.190487984242603	-0.07359328437748192	0.43311993026556017	0.957368076441479	-0.019537577247550304
111	2.22	0.13270755973220133	0.9710170365534603	-0.057101278532999636	0.0267881319368941	0.9607739892539627	-0.046307010423566074	0.010438311197325299	0.5201548647840308	-0.07750436054086192	0.0018588910174966132	0.0901303300946437	-0.07948554982435435	-0.0028210101600087095	0.041291640037440264	0.09878645549008504	-0.04980870829343564	0.04346604706486102	0.045729813728161664	0.011133022202981967	0.04946274437400266	-0.11720191070995052	0.24078675816603679	0.958653917862348	-0.06771746224071108	0.2421240107248066	0.5212449542935305	-0.11456747565418401	0.24470697928343826	0.09255670329195198	-0.10904253128451535	0.2880467305448993	0.03582246762483471	0.0724570634078358	0.3293915738129753	0.03951509776652713	0.010884438904210047	0.23430888396183522	0.04713829275352117	-0.14220172016686014	0.15398100976296375	1.579060733864077	-0.06984279974002272	0.15343809522398802	1.823261196830361	-0.03221586593710678	0.16072373111181354	1.6988586731788533	0.09173527979451652	-0.01508541351086551	1.47311735922995	-0.06313236991744117	-0.07222713443512337	1.1889094260231559	-0.04382695592260458	-0.15400504769961865	0.9573850236796648	0.037515323260242026	0.3197312825957977	1.4706150299976057	-0.09199518666549486	0.35635649031626193	1.1919519310266342	-0.06929612940346802	0.4333303023521838	0.9562207181554913	-0.00920778265226712
112	2.24	0.13275680390207542	0.9712883623297774	-0.048374622000381465	0.02470084427348094	0.9592934673016846	-0.04519490959726032	0.00922650217997587	0.5159868814242692	-0.07781220959760848	0.0036529362492875002	0.09031686479480283	-0.08419033287400794	0.0035376266274124383	0.03889564308303868	0.1180313548727418	-0.04284529532821564	0.03970592316462216	0.06854832492740698	0.011147932907237515	0.0460377393764145	-0.12710985089846055	0.23713463193868306	0.9568293900121557	-0.05914523198765232	0.2377074026632298	0.5167484316492964	-0.10869402755413898	0.2436554271788116	0.09230779162582733	-0.10290156934348914	0.2838795633932543	0.03887419734231435	0.08188914285494774	0.31744169822390617	0.03715452147423632	0.021664724553134083	0.2292258251354895	0.045378394585626494	-0.1434694971365703	0.15010913969649306	1.578741522307133	-0.06604318152001228	0.1522866751333645	1.8231694362706394	-0.02505943084995119	0.1570519821323372	1.6951344711552778	0.0915289593017655	-0.011727310239587566	1.4692902909221426	-0.05743893151221149	-0.06698724212079545	1.1836651966372778	-0.03384542699009384	-0.15761605905862996	0.949900628299506	0.03424159212750611	0.3163657320421125	1.4677908666311883	-0.08373408875667554	0.355130026733384	1.1850601723664385	-0.06902988459403477	0.43174700535873806	0.9533063513705242	-0.002809430715124229
113	2.26	0.12980133050035986	0.9728068753928196	-0.057770496370662	0.02548232787753307	0.9625525619474175	-0.04599544074300715	0.010401966654068359	0.520661794837401	-0.07805476446539132	0.0032098846617628503	0.0911579735431497	-0.0793927993525356	-0.0013804391057727703	0.03751366312900044	0.1002217188197007	-0.049830533399199406	0.03837798766626437	0.04306196968137822	0.012148492095116507	0.04766715407022158	-0.12181908759093452	0.241275554021726	0.9604850834004567	-0.07072150533357288	0.24084314514229824	0.5205369800406712	-0.11661663292775576	0.24500293256341762	0.09068631588427596	-0.10978462215067983	0.2895081726709485	0.0367343669102467	0.07069282871883759	0.32695698271838936	0.03893419663882558	0.010565544489349946	0.2330028779653359	0.04526537577895649	-0.14172479789436768	0.15123039770214164	1.5780164217792336	-0.07185079407456112	0.1550390880835132	1.8251707947159628	-0.03706713225726764	0.16269050452949338	1.6940584693065388	0.0865755462725243	-0.014005499475027904	1.4718047740321645	-0.06866176204936103	-0.07108882449310691	1.189517523180449	-0.04206919698011932	-0.15163052070892266	0.9566168074664186	0.04273056340189876	0.3200935227400897	1.4679452272829063	-0.09455226156302167	0.3571845941441797	1.188144916821589	-0.072992372046291	0.4341329472028521	0.9587057614419203	0.0027783069658364897
114	2.28	0.13346642216778531	0.973380211234487	-0.058771464096622844	0.024569935583391874	0.9602948117965228	-0.04797013076540728	0.011349430740200332	0.5213094066325926	-0.07820122526978	0.005214012453862372	0.09027242425162703	-0.08283089114998958	-0.005045746770463676	0.04024803172899276	0.09873679748152797	-0.05372854976600525	0.04081540651965252	0.04532158890051821	0.011100320865903792	0.04520139196389636	-0.12198110772148817	0.24209296511699185	0.9595762078102422	-0.07169423118167803	0.24165561023725013	0.5197133199938103	-0.11599525838654513	0.24599506068728774	0.09144133930676182	-0.10978119344356861	0.28431142550884053	0.03700131969000155	0.06820001469142509	0.326102398578819	0.03946694016731767	0.009492601812296813	0.2355990391725269	0.04583791464046712	-0.14308555257671554	0.15188135714649384	1.5800628797262537	-0.07331890881107764	0.1531697402691836	1.8235667425345614	-0.03204306095223499	0.16130265561574905	1.6962619453768915	0.08664740362815578	-0.013308053892308361	1.472457892443951	-0.06979133519247564	-0.07010278006513965	1.1874772085686884	-0.043573111425907377	-0.15435096429366618	0.9626883893169373	0.05253684109382298	0.31959898655278846	1.470106938373675	-0.09374845307120173	0.3564604296890831	1.190097807913181	-0.07718277936709869	0.4338353659360805	0.9605673222272753	0.0037341357451792026
115	2.3	0.1328924653694736	0.9726217558562689	-0.05972287291236388	0.0255427737877418	0.9596763339314629	-0.04537839236459712	0.010925921515870582	0.5211902527421568	-0.07748041436273354	0.003184993402281448	0.09084193509833426	-0.08504293932165864	-0.0010298829568845046	0.037454409458287236	0.09827084238134325	-0.05243548988464375	0.04137537932289443	0.04177001864019254	0.014260774657936563	0.04565581879011144	-0.12346808585727144	0.23975282948223436	0.9576364687803787	-0.06818215925832187	0.24083604898928498	0.5195720977519754	-0.11558958310668524	0.2449118213644911	0.09168827950013785	-0.10964447490923288	0.2828754281098963	0.03760605262021221	0.06628165082360885	0.32382055244967045	0.03968276792018948	0.009473599651505644	0.23489327439513974	0.044737819215719274	-0.1418693170759841	0.1525267485014475	1.57848385119609	-0.07514952758528064	0.1533951620490598	1.824312386228053	-0.04017947925154787	0.164341922564712	1.6973178625376493	0.0787024736455029	-0.012378459927290766	1.4726011158736205	-0.07105855168746689	-0.0704873621296331	1.1890639312363873	-0.039643573472567646	-0.15202138175548857	0.9685872776751224	0.06064264567305003	0.3186928431934166	1.470182239330661	-0.09227236316626274	0.35868997639896016	1.1901436531149512	-0.06911587123542602	0.4353735526401988	0.9662240203313891	0.008789382669284068
116	2.32	0.13097043837943492	0.9763844024751004	-0.0514431398053983	0.02691746770275886	0.962995090725986	-0.04663779396982613	0.011619877221850022	0.5163149624899042	-0.07859639827033764	0.002591722066023508	0.09108718468218646	-0.08386723964088234	0.0030969837978579405	0.03757469908903693	0.11185470983678068	-0.0437735059291141	0.038278696345751775	0.06630952870786345	0.009329888621560152	0.0466887502636034	-0.12989587348654574	0.23792362917383197	0.9581539161888114	-0.06242810927393946	0.239980030920193	0.5208803671959342	-0.11017085228207596	0.2461251440105124	0.09291314098552123	-0.10407514065509468	0.28668182741297377	0.03874996323703241	0.08137733156689525	0.3188018360678179	0.03893602028762121	0.019422682379797652	0.2305467431965068	0.04415497674592747	-0.14420836736386883	0.1522588660834239	1.5782565215542017	-0.0664457664115484	0.15701320311786257	1.8224763731881333	-0.019686590826456605	0.16193602775519778	1.695579169864641	0.09014363146858292	-0.010790319693348685	1.4691181220887564	-0.0605037200617355	-0.0668237124052873	1.1848143023797533	-0.029540523414210696	-0.14926677976717168	0.9631756016822026	0.07099619610249477	0.3166559325684256	1.467483260531808	-0.09261871099996716	0.3532925475934719	1.1881810877012622	-0.07041448997313454	0.4320250012547149	0.9636394984070906	0.02273110157214691
117	2.34	0.13132188446262452	0.9740463544186047	-0.06607165619589594	0.024085578958731892	0.960932454910859	-0.05255302081681042	0.00875100549292923	0.5201512657427967	-0.08276309747080497	0.0032234889071154917	0.09144235697792959	-0.08319028663615369	-0.003404527088440907	0.0391419318531108	0.09118407481048793	-0.05130584093759123	0.041486348110547494	0.04523966663556991	0.011419452679939827	0.04595586687103676	-0.11737579366537655	0.23880970701114018	0.959153089999886	-0.07616177325032374	0.24087462146947577	0.5171027042387113	-0.11869409558589661	0.24575996817352463	0.09091504801913919	-0.1143434548020172	0.2855486742208454	0.03651978943594598	0.06338155412658149	0.32657606540067363	0.03897442043411122	0.007511182909398143	0.23288223423673246	0.04470523271084007	-0.14281291874548036	0.15167627706137318	1.5796504411725911	-0.07408085582934774	0.15594107445853733	1.8272433820580039	-0.03340638488530736	0.16333037036862702	1.6962073345394537	0.08310054615315708	-0.010607128931330142	1.4734061893092871	-0.07066870255786983	-0.07001110880382538	1.1895337994355069	-0.03752109606396969	-0.15221406242074656	0.9722817100184046	0.07349255463706583	0.3206817592414404	1.4656579200837647	-0.09841074192280384	0.35779032340770345	1.1886670512432156	-0.06983003838806519	0.43884043904076414	0.9695603458234758	0.020480985111487934
118	2.36	0.13066854527895141	0.9732995558206008	-0.06331132366076471	0.024488222612473225	0.9600684789473686	-0.052658748926082195	0.011197472178781146	0.5198958649358255	-0.08115317636451609	0.0036280175609825684	0.09063912101545621	-0.08404559040737558	-0.0037929529425951994	0.04038061391057497	0.0912400585983994	-0.050844211889449833	0.03949421019001067	0.0426636337689515	0.009761552291664996	0.045205447363489235	-0.12063445024129772	0.2381779308848824	0.9567007859055088	-0.07263289370573985	0.2406296100745116	0.5168459515415116	-0.11741194937154194	0.24508584047938003	0.09422270277453204	-0.11137239051189236	0.29030690511113183	0.038407803974774224	0.06701112646939208	0.3288242096706012	0.04226828648694089	0.0023896489929503112	0.23383960952966967	0.04661662851125212	-0.14111072585629397	0.15184974821718952	1.577337988955151	-0.08287730687097254	0.15631403461522966	1.8240560425512435	-0.036858065203833126	0.1663440897772912	1.6937340901678892	0.07344657649800435	-0.010305686188971996	1.4721959310946264	-0.07253957197448004	-0.06802451750375813	1.1917313721461877	-0.04209502359671554	-0.1497332052372909	0.9797749207227597	0.08328868953415605	0.31698381784216845	1.4657890284748192	-0.1036468352389819	0.35648206504214375	1.19122478438239	-0.07221603870722643	0.4375416502286382	0.9763036549790429	0.024555420944648597
